Metal.Shifters.2011.BRRiP.AC3-5.1.XviD-SiC

IMDB Link: 
http://www.imdb.com/title/tt1651894/

Description:
Alien bacteria arrives on a meteorite and infects metal, animating a giant 
iron statue that goes on a killing rampage in a small town.

General
Format                                   : AVI
Format/Info                              : Audio Video Interleave
File size                                : 1.37 GiB
Duration                                 : 1h 30mn
Overall bit rate                         : 2 168 Kbps

Video
ID                                       : 0
Format                                   : MPEG-4 Visual
Format profile                           : Advanced Simple@L5
Format settings, BVOP                    : 2
Format settings, QPel                    : No
Format settings, GMC                     : No warppoints
Format settings, Matrix                  : Default (H.263)
Muxing mode                              : Packed bitstream
Codec ID                                 : XVID
Codec ID/Hint                            : XviD
Duration                                 : 1h 30mn
Bit rate                                 : 1 776 Kbps
Width                                    : 720 pixels
Height                                   : 400 pixels
Display aspect ratio                     : 16:9
Frame rate                               : 23.976 fps
Color space                              : YUV
Chroma subsampling                       : 4:2:0
Bit depth                                : 8 bits
Scan type                                : Progressive
Compression mode                         : Lossy
Bits/(Pixel*Frame)                       : 0.257
Stream size                              : 1.12 GiB (82%)
Writing library                          : XviD 1.3.0.dev55

Audio
ID                                       : 1
Format                                   : AC-3
Format/Info                              : Audio Coding 3
Mode extension                           : CM (complete main)
Codec ID                                 : 2000
Duration                                 : 1h 30mn
Bit rate mode                            : Constant
Bit rate                                 : 384 Kbps
Channel(s)                               : 6 channels
Channel positions                        : Front: L C R, Side: L R, LFE
Sampling rate                            : 48.0 KHz
Bit depth                                : 16 bits
Compression mode                         : Lossy
Stream size                              : 249 MiB (18%)
Alignment                                : Aligned on interleaves
Interleave, duration                     : 64 ms (1.53 video frames)
Interleave, preload duration             : 192 ms


Note: Video was nice! Added contrast, saturation, denoised and sharpened.

Source: metal.shifters.2011.720p-hd4u

Enjoy!

Respects to T00NG0D, ELEKTRI4KA, PA, YeFsTe, MrRep and everyone in the struggle...RiP MU


Poster:

 
http://i.imgur.com/muwbs.jpg


Screens:

 
http://i.imgur.com/PhIrg.png

 
http://i.imgur.com/UGqLn.png

 
http://i.imgur.com/Yx01k.png


ENJOY!